<?xml version="1.0" encoding="utf-8"?>
<!-- Generator: Adobe Illustrator 16.0.4, SVG Export Plug-In . SVG Version: 6.00 Build 0)  -->
<!DOCTYPE svg PUBLIC "-//W3C//DTD SVG 1.1//EN" "http://www.w3.org/Graphics/SVG/1.1/DTD/svg11.dtd">
<svg version="1.1" id="Layer_1" xmlns="http://www.w3.org/2000/svg" xmlns:xlink="http://www.w3.org/1999/xlink" x="0px" y="0px"
	 width="612px" height="1584px" viewBox="0 0 612 1584" enable-background="new 0 0 612 1584" xml:space="preserve">
<g>
	<path fill="#3D3F46" d="M544.914,165.12c-73.439,16.83-67.318,107.1-67.318,107.1v143.82v142.29c0,0-6.121,90.27,67.318,107.1
		c67.32,16.83,67.32,56.61,67.32,56.61v-306v-306C612.234,110.04,612.234,149.82,544.914,165.12z"/>
	<path fill="#3D3F46" d="M552.564,183.48c-64.26,15.3-58.139,85.68-58.139,85.68v146.88v145.35c0,0-6.121,70.381,58.139,85.681
		c59.67,13.77,59.67,38.25,59.67,38.25V416.04V145.23C612.234,145.23,612.234,171.24,552.564,183.48z"/>
</g>
<polygon fill="#FFFFFF" points="575.516,466.53 508.195,416.04 575.516,365.55 "/>
<g>
	<g>
		<path fill="#3D3F46" d="M66.025,665.43c73.44-16.83,67.32-107.1,67.32-107.1V416.04V273.75c0,0,6.12-90.27-67.32-107.1
			c-65.79-16.83-65.79-56.61-65.79-56.61v306v306C0.235,720.51,0.235,680.73,66.025,665.43z"/>
		<path fill="#3D3F46" d="M58.375,647.07c64.26-15.3,58.14-85.681,58.14-85.681V416.04V270.69c0,0,6.12-70.38-58.14-85.68
			c-58.14-13.77-58.14-39.78-58.14-39.78v270.81v269.28C0.235,685.32,0.235,660.84,58.375,647.07z"/>
	</g>
	<polygon fill="#FFFFFF" points="36.955,367.08 101.215,416.04 36.955,465 	"/>
</g>
<g>
	<g>
		<rect x="202.195" y="177.36" fill="#3D3F46" width="206.549" height="475.831"/>
		<rect x="202.195" y="197.25" fill="#3D3F46" width="206.549" height="437.58"/>
	</g>
	<g>
		<polygon fill="#FFFFFF" points="297.055,465 249.625,416.04 297.055,367.08 		"/>
		<polygon fill="#FFFFFF" points="315.414,367.08 362.846,416.04 315.414,465 		"/>
	</g>
</g>
<g>
	<path fill="#6E6D79" d="M544.68,887.91c-73.439,16.83-67.319,107.101-67.319,107.101v143.819v142.29c0,0-6.12,90.27,67.319,107.1
		c67.32,16.83,67.32,56.61,67.32,56.61v-306v-306C612,832.83,612,872.61,544.68,887.91z"/>
	<path fill="#6E6D79" d="M552.33,906.271c-64.26,15.3-58.14,85.68-58.14,85.68v146.88v145.35c0,0-6.12,70.381,58.14,85.681
		c59.67,13.77,59.67,38.25,59.67,38.25v-269.28v-270.81C612,868.021,612,894.03,552.33,906.271z"/>
</g>
<polygon fill="#FFFFFF" points="575.28,1189.32 507.96,1138.83 575.28,1088.34 "/>
<g>
	<g>
		<path fill="#6E6D79" d="M65.79,1388.22c73.44-16.83,67.32-107.1,67.32-107.1v-142.29V996.54c0,0,6.12-90.27-67.32-107.1
			C0,872.61,0,832.83,0,832.83v306v306C0,1443.3,0,1403.521,65.79,1388.22z"/>
		<path fill="#6E6D79" d="M58.14,1369.86c64.26-15.3,58.14-85.681,58.14-85.681v-145.35V993.479c0,0,6.12-70.379-58.14-85.68
			C0,894.03,0,868.021,0,868.021v270.81v269.28C0,1408.11,0,1383.63,58.14,1369.86z"/>
	</g>
	<polygon fill="#FFFFFF" points="36.72,1089.87 100.98,1138.83 36.72,1187.79 	"/>
</g>
<g>
	<g>
		<rect x="201.96" y="900.149" fill="#6E6D79" width="206.55" height="475.831"/>
		<rect x="201.96" y="920.04" fill="#6E6D79" width="206.55" height="437.58"/>
	</g>
	<g>
		<polygon fill="#FFFFFF" points="296.82,1187.79 249.39,1138.83 296.82,1089.87 		"/>
		<polygon fill="#FFFFFF" points="315.18,1089.87 362.61,1138.83 315.18,1187.79 		"/>
	</g>
</g>
</svg>
