<?xml version="1.0" encoding="utf-8"?>
<!-- Generator: Adobe Illustrator 17.1.0, SVG Export Plug-In . SVG Version: 6.00 Build 0)  -->
<!DOCTYPE svg PUBLIC "-//W3C//DTD SVG 1.1//EN" "http://www.w3.org/Graphics/SVG/1.1/DTD/svg11.dtd">
<svg version="1.1" id="Layer_1" xmlns="http://www.w3.org/2000/svg" xmlns:xlink="http://www.w3.org/1999/xlink" x="0px" y="0px"
	 viewBox="0 0 332.7 136" enable-background="new 0 0 332.7 136" xml:space="preserve">
<g>
	<rect x="-32" y="0" fill="none" width="387.8" height="136"/>
	<g>
		<path fill="#ffffff" d="M105.2,62.6h-4.5v12.9c0,0.2-0.2,0.5-0.5,0.5H98c-0.2,0-0.5-0.2-0.5-0.5V62.6h-4.5c-0.2,0-0.5-0.2-0.5-0.4
			v-1.8c0-0.2,0.2-0.4,0.5-0.4h12.1c0.2,0,0.5,0.2,0.5,0.4v1.8C105.6,62.4,105.4,62.6,105.2,62.6z M121.4,76h-2.2
			c-0.3,0-0.5-0.2-0.5-0.5V69h-7.1v6.5c0,0.2-0.2,0.5-0.4,0.5h-2.2c-0.2,0-0.5-0.2-0.5-0.5V60.4c0-0.2,0.2-0.4,0.5-0.4h2.2
			c0.2,0,0.4,0.2,0.4,0.4v5.8h7.1v-5.8c0-0.2,0.2-0.4,0.5-0.4h2.2c0.2,0,0.4,0.2,0.4,0.4v15.1C121.9,75.8,121.7,76,121.4,76z
			 M132.6,76.2c-3.7,0-7.2-2.1-7.2-7v-2.3c0-5,3.4-7,7.2-7c3.7,0,7.2,2.1,7.2,7v2.3C139.8,74.1,136.3,76.2,132.6,76.2z M136.6,66.8
			c0-3-1.8-4.3-4-4.3c-2.2,0-4,1.3-4,4.3v2.3c0,3,1.8,4.3,4,4.3c2.2,0,4-1.3,4-4.3V66.8z M159.2,76h-2.3c-0.2,0-0.4-0.2-0.4-0.5
			v-9.7c0-0.2,0-0.2-0.1-0.2c0,0-0.1,0.1-0.1,0.1l-3.6,8.1c-0.1,0.2-0.4,0.4-0.7,0.4h-1.2c-0.3,0-0.6-0.1-0.7-0.4l-3.7-8.1
			c0-0.1-0.1-0.1-0.1-0.1c0,0-0.1,0.1-0.1,0.2v9.7c0,0.2-0.2,0.5-0.4,0.5h-2.3c-0.2,0-0.4-0.1-0.4-0.3V60.9c0-0.5,0.4-0.9,0.9-0.9
			h1.8c0.4,0,0.7,0.2,0.8,0.5l4.3,8.8c0.1,0.2,0.2,0.3,0.3,0.3c0.1,0,0.1-0.1,0.2-0.3l4.3-8.8c0.2-0.3,0.5-0.5,0.8-0.5h1.8
			c0.5,0,0.9,0.4,0.9,0.9v14.8C159.5,75.9,159.4,76,159.2,76z M208.6,76h-2.3c-0.5,0-1,0-1.4-0.8l-6.1-10.2
			c-0.1-0.1-0.1-0.2-0.2-0.2c-0.1,0-0.1,0-0.1,0.2v10.6c0,0.2-0.2,0.5-0.4,0.5h-1.9c-0.3,0-0.5-0.2-0.5-0.5V60.9
			c0-0.5,0.4-0.9,0.9-0.9h2.4c0.5,0,0.7,0.1,1,0.7l6.4,10.8c0,0.1,0.1,0.2,0.2,0.2c0,0,0.1-0.1,0.1-0.2V60.4c0-0.2,0.2-0.4,0.4-0.4
			h1.9c0.2,0,0.4,0.2,0.4,0.4v14.7C209.5,75.6,209.1,76,208.6,76z M169.2,76.2c-2,0-4-0.3-5.1-0.6c-0.2,0-0.4-0.2-0.4-0.4v-1.6
			c0-0.2,0.2-0.4,0.4-0.4c0,0,0,0,0,0c0.9,0.1,3,0.4,5.1,0.4c2,0,2.6-0.7,2.6-2c0-1.7-4-2.6-6-3.4c-2-0.8-2.7-2.4-2.7-3.9
			c0-2.5,2-4.3,6.2-4.3c2.1,0,4.1,0.4,4.9,0.6c0.2,0,0.4,0.2,0.4,0.4v1.7c0,0.2-0.2,0.4-0.4,0.4c0,0,0,0,0,0c-1.5-0.1-3-0.4-5-0.4
			c-1.7,0-2.9,0.6-2.9,1.6c0,0.7,0.8,1.4,1.8,1.8c1,0.4,2.3,0.9,3.8,1.5c1.9,0.8,3.1,1.9,3.1,4C175.1,73.7,173.7,76.2,169.2,76.2z
			 M185.1,76.2c-3.7,0-7.2-2.1-7.2-7v-2.3c0-5,3.4-7,7.2-7c3.7,0,7.2,2.1,7.2,7v2.3C192.3,74.1,188.8,76.2,185.1,76.2z M189.1,66.8
			c0-3-1.8-4.3-4-4.3c-2.2,0-4,1.3-4,4.3v2.3c0,3,1.8,4.3,4,4.3c2.2,0,4-1.3,4-4.3V66.8z M232.9,76h-2.8c-0.2,0-0.3-0.2-0.4-0.5
			l-3.2-5.5h-0.5c-0.6,0-2.4-0.1-2.9-0.1v5.6c0,0.2-0.2,0.5-0.4,0.5h-2.2c-0.2,0-0.5-0.2-0.5-0.5V60.8c0-0.5,0.3-0.6,0.7-0.7
			c1.2-0.2,3.7-0.3,5.3-0.3c3.5,0,6.7,1.2,6.7,5.1v0.2c0,2.4-1.2,3.7-3,4.4l3.5,6c0,0.1,0,0.1,0,0.2C233.1,75.9,233.1,76,232.9,76z
			 M229.5,64.9c0-1.7-1.3-2.4-3.6-2.4c-0.5,0-2.5,0-2.9,0.1v4.9c0.4,0,2.5,0.1,2.9,0.1c2.3,0,3.6-0.4,3.6-2.4V64.9z M239.2,71.5
			c0,1.9,0.1,1.9,1.8,1.9h5.7c0.2,0,0.4,0.2,0.4,0.5v1.4c0,0.3-0.1,0.4-0.4,0.5c-0.7,0.1-2.2,0.3-4.9,0.3c-3.7,0-5.7,0-5.7-4.6v-7.1
			c0-4.6,2-4.6,5.7-4.6c2.7,0,4.1,0.2,4.9,0.3c0.3,0,0.4,0.2,0.4,0.5V62c0,0.2-0.2,0.5-0.4,0.5h-5.7c-1.7,0-1.8,0-1.8,1.9v2.1h7.2
			c0.2,0,0.4,0.2,0.4,0.4v1.6c0,0.2-0.2,0.4-0.4,0.4h-7.2V71.5z M257.2,76.2c-3.6,0-6.7-1.6-6.7-6.4v-9.4c0-0.2,0.2-0.4,0.5-0.4h2.2
			c0.2,0,0.4,0.2,0.4,0.4v9.4c0,2.6,1.2,3.8,3.6,3.8c2.4,0,3.6-1.2,3.6-3.8v-9.4c0-0.2,0.2-0.4,0.4-0.4h2.2c0.2,0,0.5,0.2,0.5,0.4
			v9.4C263.9,74.6,260.8,76.2,257.2,76.2z M278.7,62.6h-4.5v12.9c0,0.2-0.2,0.5-0.5,0.5h-2.2c-0.2,0-0.5-0.2-0.5-0.5V62.6h-4.5
			c-0.2,0-0.4-0.2-0.4-0.4v-1.8c0-0.2,0.2-0.4,0.4-0.4h12.1c0.2,0,0.4,0.2,0.4,0.4v1.8C279.2,62.4,279,62.6,278.7,62.6z M309.3,76
			h-2.8c-0.2,0-0.3-0.2-0.4-0.5l-3.2-5.5h-0.5c-0.6,0-2.4-0.1-2.9-0.1v5.6c0,0.2-0.2,0.5-0.4,0.5h-2.2c-0.2,0-0.4-0.2-0.4-0.5V60.8
			c0-0.5,0.3-0.6,0.7-0.7c1.2-0.2,3.7-0.3,5.3-0.3c3.5,0,6.7,1.2,6.7,5.1v0.2c0,2.4-1.2,3.7-3,4.4l3.5,6c0,0.1,0,0.1,0,0.2
			C309.6,75.9,309.5,76,309.3,76z M306,64.9c0-1.7-1.3-2.4-3.6-2.4c-0.5,0-2.5,0-2.9,0.1v4.9c0.4,0,2.6,0.1,2.9,0.1
			c2.3,0,3.6-0.4,3.6-2.4V64.9z M317.9,76.2c-2,0-4-0.3-5.1-0.6c-0.2,0-0.4-0.2-0.4-0.4v-1.6c0-0.2,0.2-0.4,0.4-0.4c0,0,0,0,0,0
			c0.9,0.1,3,0.4,5.1,0.4c2,0,2.6-0.7,2.6-2c0-1.7-4-2.6-6-3.4c-2-0.8-2.7-2.4-2.7-3.9c0-2.5,2-4.3,6.2-4.3c2.1,0,4.1,0.4,4.9,0.6
			c0.2,0,0.4,0.2,0.4,0.4v1.7c0,0.2-0.2,0.4-0.4,0.4c0,0,0,0,0,0c-1.5-0.1-3-0.4-5-0.4c-1.7,0-2.9,0.6-2.9,1.6
			c0,0.7,0.9,1.4,1.8,1.8c1,0.4,2.3,0.9,3.8,1.5c1.9,0.8,3.1,1.9,3.1,4C323.8,73.7,322.4,76.2,317.9,76.2z M284.6,71.5
			c0,1.9,0.1,1.9,1.8,1.9h5.7c0.2,0,0.4,0.2,0.4,0.5v1.4c0,0.3-0.1,0.4-0.4,0.5c-0.7,0.1-2.2,0.3-4.9,0.3c-3.7,0-5.7,0-5.7-4.6v-7.1
			c0-4.6,2-4.6,5.7-4.6c2.7,0,4.1,0.2,4.9,0.3c0.3,0,0.4,0.2,0.4,0.5V62c0,0.2-0.2,0.5-0.4,0.5h-5.7c-1.7,0-1.8,0-1.8,1.9v2.1h7.2
			c0.2,0,0.4,0.2,0.4,0.4v1.6c0,0.2-0.2,0.4-0.4,0.4h-7.2V71.5z M329.1,60.8v-0.3c0,0,0-0.1-0.1-0.1h-2.3c0,0-0.1,0-0.1,0.1v0.3
			c0,0,0,0.1,0.1,0.1h0.9v2.5c0,0,0,0.1,0.1,0.1h0.4c0,0,0.1,0,0.1-0.1v-2.5L329.1,60.8C329,60.9,329.1,60.8,329.1,60.8z
			 M332.7,63.4v-2.9c0-0.1-0.1-0.2-0.2-0.2h-0.4c-0.1,0-0.1,0-0.2,0.1l-0.8,1.7c0,0,0,0.1,0,0.1c0,0,0,0,0-0.1l-0.8-1.7
			c0-0.1-0.1-0.1-0.2-0.1h-0.4c-0.1,0-0.2,0.1-0.2,0.2v2.9c0,0,0,0.1,0.1,0.1h0.4c0,0,0.1,0,0.1-0.1v-1.9c0,0,0,0,0,0c0,0,0,0,0,0
			l0.7,1.6c0,0,0.1,0.1,0.1,0.1h0.2c0.1,0,0.1,0,0.1-0.1l0.7-1.6c0,0,0,0,0,0c0,0,0,0,0,0v1.9c0,0,0,0.1,0.1,0.1L332.7,63.4
			C332.7,63.5,332.7,63.4,332.7,63.4z"/>
		<g>
			
				<linearGradient id="SVGID_1_" gradientUnits="userSpaceOnUse" x1="-29.1882" y1="75.4781" x2="-49.7966" y2="87.3763" gradientTransform="matrix(0.9996 2.860000e-02 -2.860000e-02 0.9996 80.1184 -12.278)">
				<stop  offset="0" style="stop-color:#FFFFFF"/>
				<stop  offset="5.001655e-02" style="stop-color:#FFFFFF"/>
				<stop  offset="0.2503" style="stop-color:#FFFFFF"/>
				<stop  offset="0.5" style="stop-color:#FFFFFF"/>
				<stop  offset="0.7497" style="stop-color:#FFFFFF"/>
				<stop  offset="0.95" style="stop-color:#FFFFFF"/>
				<stop  offset="1" style="stop-color:#FFFFFF"/>
			</linearGradient>
			<path fill="url(#SVGID_1_)" d="M34.3,57.5c0.4,0.7,0.1,1.6-0.6,2c-0.7,0.4-1.6,0.1-2-0.6c-0.4-0.7-0.1-1.6,0.6-2
				C33,56.4,33.9,56.7,34.3,57.5z M26.9,69.2c-0.4,0.2-0.6,0.8-0.4,1.2c0.2,0.4,0.8,0.6,1.2,0.3c0.4-0.2,0.6-0.8,0.4-1.2
				C27.9,69.1,27.3,69,26.9,69.2z M26.8,65.6c-0.5,0.3-0.7,0.9-0.4,1.4c0.3,0.5,0.9,0.7,1.4,0.4c0.5-0.3,0.7-0.9,0.4-1.4
				C27.9,65.5,27.3,65.3,26.8,65.6z M27.7,62.1c-0.6,0.3-0.8,1-0.5,1.6c0.3,0.6,1,0.8,1.6,0.5c0.6-0.3,0.8-1,0.5-1.6
				C29,62,28.3,61.8,27.7,62.1z M29.6,59.1c-0.7,0.4-0.9,1.1-0.5,1.8c0.3,0.6,1.1,0.9,1.8,0.5c0.7-0.3,0.9-1.2,0.5-1.8
				C31.1,59,30.2,58.8,29.6,59.1z M28.1,72.6c-0.4,0.2-0.5,0.6-0.3,1c0.2,0.4,0.6,0.5,1,0.3c0.4-0.2,0.5-0.6,0.3-1
				C28.9,72.6,28.5,72.4,28.1,72.6z M45.2,60.3c0.2,0.4,0.8,0.6,1.2,0.4c0.4-0.2,0.6-0.8,0.4-1.2c-0.2-0.4-0.8-0.6-1.2-0.4
				C45.2,59.4,45,59.9,45.2,60.3z M42.2,58.4c0.3,0.5,0.9,0.7,1.4,0.4c0.5-0.3,0.7-0.9,0.4-1.4c-0.3-0.5-0.9-0.7-1.4-0.4
				C42.2,57.3,42,57.9,42.2,58.4z M38.8,57.5c0.3,0.6,1,0.8,1.6,0.5c0.6-0.3,0.8-1,0.5-1.6c-0.3-0.6-1-0.8-1.6-0.5
				C38.7,56.2,38.5,56.9,38.8,57.5z M35.1,57.6c0.3,0.7,1.2,0.9,1.8,0.5c0.6-0.4,0.9-1.2,0.5-1.8c-0.3-0.6-1.2-0.9-1.8-0.5
				C35,56.2,34.8,57,35.1,57.6z M47.5,63c0.2,0.4,0.6,0.5,1,0.3c0.4-0.2,0.5-0.6,0.3-1c-0.2-0.4-0.6-0.5-1-0.3
				C47.4,62.2,47.3,62.7,47.5,63z M44.9,77.1c-0.4-0.7-1.3-1-2-0.6c-0.7,0.4-1,1.3-0.6,2c0.4,0.7,1.3,1,2,0.6
				C45.1,78.7,45.3,77.8,44.9,77.1z M31.4,75.6c-0.2-0.4-0.8-0.6-1.2-0.4c-0.4,0.2-0.6,0.8-0.4,1.2c0.2,0.4,0.8,0.6,1.2,0.4
				C31.5,76.6,31.6,76.1,31.4,75.6z M34.4,77.6c-0.3-0.5-0.9-0.7-1.4-0.4c-0.5,0.3-0.7,0.9-0.4,1.4c0.3,0.5,0.9,0.7,1.4,0.4
				C34.5,78.7,34.7,78,34.4,77.6z M37.9,78.5c-0.3-0.6-1-0.8-1.6-0.5c-0.6,0.3-0.8,1-0.5,1.6c0.3,0.6,1,0.8,1.6,0.5
				C38,79.8,38.2,79.1,37.9,78.5z M41.5,78.3c-0.4-0.6-1.2-0.9-1.8-0.5c-0.6,0.3-0.9,1.1-0.5,1.8c0.3,0.6,1.1,0.9,1.8,0.5
				C41.6,79.8,41.8,79,41.5,78.3z M49.7,66.8c0.4-0.2,0.6-0.8,0.4-1.2c-0.2-0.4-0.8-0.6-1.2-0.4c-0.4,0.2-0.6,0.8-0.4,1.2
				C48.8,66.8,49.3,67,49.7,66.8z M49.9,70.4c0.5-0.3,0.7-0.9,0.4-1.4c-0.3-0.5-0.9-0.7-1.4-0.4c-0.5,0.3-0.7,0.9-0.4,1.4
				C48.7,70.5,49.4,70.6,49.9,70.4z M48.9,73.9c0.6-0.3,0.8-1,0.5-1.6c-0.3-0.6-1-0.8-1.6-0.5c-0.6,0.3-0.8,1-0.5,1.6
				C47.7,73.9,48.4,74.2,48.9,73.9z M47,76.8c0.6-0.3,0.9-1.2,0.5-1.8c-0.4-0.6-1.2-0.9-1.8-0.5c-0.6,0.4-0.9,1.2-0.5,1.8
				C45.6,77,46.4,77.2,47,76.8z"/>
			
				<linearGradient id="SVGID_2_" gradientUnits="userSpaceOnUse" x1="-90.2827" y1="80.7254" x2="-122.3247" y2="80.7254" gradientTransform="matrix(0.9595 0.2818 -0.2818 0.9595 163.061 20.4918)">
				<stop  offset="0" style="stop-color:#FFFFFF"/>
				<stop  offset="5.001655e-02" style="stop-color:#FFFFFF"/>
				<stop  offset="0.2503" style="stop-color:#FFFFFF"/>
				<stop  offset="0.5" style="stop-color:#FFFFFF"/>
				<stop  offset="0.7497" style="stop-color:#FFFFFF"/>
				<stop  offset="0.95" style="stop-color:#FFFFFF"/>
				<stop  offset="1" style="stop-color:#FFFFFF"/>
			</linearGradient>
			<path fill="url(#SVGID_2_)" d="M44.5,53.9c-0.3,1-1.4,1.6-2.4,1.3c-1-0.3-1.6-1.4-1.3-2.4c0.3-1,1.4-1.6,2.4-1.3
				C44.2,51.7,44.8,52.8,44.5,53.9z M25.9,58.4c-0.5-0.1-1,0.1-1.2,0.7c-0.2,0.5,0.1,1,0.6,1.2c0.5,0.1,1-0.1,1.2-0.6
				C26.7,59.1,26.4,58.6,25.9,58.4z M29.3,54.7c-0.6-0.2-1.3,0.2-1.5,0.8c-0.2,0.6,0.2,1.3,0.8,1.5c0.6,0.2,1.3-0.2,1.5-0.8
				C30.3,55.6,29.9,54.9,29.3,54.7z M33.6,52.1c-0.8-0.2-1.6,0.2-1.9,1c-0.2,0.8,0.2,1.6,1,1.9c0.8,0.2,1.6-0.2,1.9-1
				C34.8,53.2,34.4,52.4,33.6,52.1z M38.4,51.1c-0.9-0.3-1.8,0.2-2.1,1.1c-0.3,0.9,0.2,1.8,1.1,2.1c0.9,0.3,1.8-0.3,2.1-1.1
				C39.8,52.3,39.2,51.3,38.4,51.1z M23.8,63c-0.4-0.1-0.8,0.1-0.9,0.5c-0.1,0.4,0.1,0.8,0.5,0.9c0.4,0.1,0.8-0.1,0.9-0.5
				C24.4,63.5,24.2,63.1,23.8,63z M52.7,67.3c-0.2,0.5,0.1,1,0.6,1.2c0.5,0.2,1-0.1,1.2-0.6c0.1-0.5-0.1-1-0.6-1.2
				C53.4,66.5,52.8,66.8,52.7,67.3z M51.6,62.5c-0.2,0.6,0.2,1.3,0.8,1.5c0.6,0.2,1.3-0.2,1.5-0.8c0.2-0.6-0.2-1.3-0.8-1.5
				C52.4,61.5,51.8,61.9,51.6,62.5z M49,58.2c-0.2,0.8,0.2,1.6,1,1.9c0.8,0.2,1.6-0.2,1.9-1c0.2-0.8-0.2-1.6-1-1.9
				C50.1,57,49.2,57.4,49,58.2z M45.3,54.9c-0.3,0.9,0.2,1.8,1.1,2.1c0.9,0.3,1.8-0.3,2.1-1.1c0.3-0.9-0.2-1.8-1.1-2.1
				C46.5,53.5,45.6,54,45.3,54.9z M52.3,72.1c-0.1,0.4,0.1,0.8,0.5,0.9c0.4,0.1,0.8-0.1,0.9-0.5c0.1-0.4-0.1-0.8-0.5-0.9
				C52.8,71.5,52.4,71.7,52.3,72.1z M35.9,83.2c0.3-1-0.3-2.1-1.3-2.4c-1-0.3-2.1,0.3-2.4,1.3c-0.3,1,0.3,2.1,1.3,2.4
				C34.5,84.8,35.6,84.2,35.9,83.2z M23.9,68.7c0.2-0.5-0.1-1-0.6-1.2c-0.5-0.1-1,0.1-1.2,0.7c-0.2,0.5,0.1,1,0.7,1.2
				C23.2,69.5,23.8,69.2,23.9,68.7z M25,73.5c0.2-0.6-0.2-1.3-0.8-1.5c-0.6-0.2-1.3,0.2-1.5,0.8c-0.2,0.6,0.2,1.3,0.8,1.5
				C24.2,74.5,24.8,74.1,25,73.5z M27.6,77.8c0.2-0.8-0.2-1.6-1-1.9c-0.8-0.2-1.6,0.2-1.9,1c-0.2,0.8,0.2,1.6,1,1.9
				C26.6,79,27.4,78.6,27.6,77.8z M31.3,81.1c0.3-0.9-0.3-1.8-1.1-2.1c-0.9-0.3-1.8,0.2-2.1,1.1c-0.3,0.9,0.2,1.8,1.1,2.1
				C30.1,82.5,31,82,31.3,81.1z M50.7,77.6c0.5,0.1,1-0.1,1.2-0.6c0.1-0.5-0.1-1-0.6-1.2c-0.5-0.1-1,0.1-1.2,0.6
				C49.9,76.9,50.2,77.4,50.7,77.6z M47.3,81.2c0.6,0.2,1.3-0.2,1.5-0.8c0.2-0.6-0.2-1.3-0.8-1.5c-0.6-0.2-1.3,0.2-1.5,0.8
				C46.3,80.4,46.7,81.1,47.3,81.2z M43,83.9c0.8,0.2,1.6-0.2,1.9-1c0.2-0.8-0.2-1.6-1-1.9c-0.8-0.2-1.6,0.2-1.9,1
				C41.8,82.8,42.2,83.6,43,83.9z M38.3,84.9c0.9,0.3,1.8-0.2,2.1-1.1c0.3-0.9-0.2-1.8-1.1-2.1c-0.9-0.3-1.8,0.2-2.1,1.1
				C36.9,83.7,37.4,84.6,38.3,84.9z"/>
			
				<linearGradient id="SVGID_3_" gradientUnits="userSpaceOnUse" x1="-87.1026" y1="97.12" x2="-123.3626" y2="74.7129" gradientTransform="matrix(0.9732 0.2298 -0.2298 0.9732 160.4703 8.5548)">
				<stop  offset="0" style="stop-color:#FFFFFF"/>
				<stop  offset="5.001655e-02" style="stop-color:#FFFFFF"/>
				<stop  offset="0.2503" style="stop-color:#FFFFFF"/>
				<stop  offset="0.5" style="stop-color:#FFFFFF"/>
				<stop  offset="0.7497" style="stop-color:#FFFFFF"/>
				<stop  offset="0.95" style="stop-color:#FFFFFF"/>
				<stop  offset="1" style="stop-color:#FFFFFF"/>
			</linearGradient>
			<path fill="url(#SVGID_3_)" d="M54.1,54.8c-0.9,1-2.5,1-3.5,0.1c-1-0.9-1-2.5-0.1-3.5c0.9-1,2.5-1.1,3.5-0.1
				C55,52.3,55.1,53.8,54.1,54.8z M29.3,49.2c-0.5-0.5-1.3-0.4-1.7,0c-0.5,0.5-0.4,1.3,0,1.7c0.5,0.5,1.3,0.4,1.7-0.1
				C29.9,50.4,29.8,49.7,29.3,49.2z M35.6,46.8c-0.6-0.6-1.6-0.5-2.1,0.1c-0.6,0.6-0.5,1.6,0.1,2.1c0.6,0.6,1.6,0.5,2.1-0.1
				C36.2,48.4,36.2,47.4,35.6,46.8z M42.2,46.3c-0.8-0.7-2-0.7-2.7,0.1c-0.7,0.8-0.7,2,0.1,2.7c0.8,0.7,2,0.7,2.7-0.1
				C43,48.3,43,47.1,42.2,46.3z M48.5,48c-0.9-0.8-2.2-0.8-3.1,0.1c-0.8,0.9-0.8,2.2,0.1,3.1c0.9,0.8,2.2,0.8,3.1-0.1
				C49.4,50.1,49.4,48.8,48.5,48z M24.1,53.3c-0.4-0.3-0.9-0.3-1.3,0c-0.3,0.4-0.3,0.9,0,1.3c0.4,0.4,0.9,0.3,1.3,0
				C24.5,54.3,24.4,53.7,24.1,53.3z M55.9,75.9c-0.5,0.5-0.4,1.3,0,1.7c0.5,0.5,1.3,0.4,1.7-0.1c0.5-0.5,0.4-1.3-0.1-1.7
				C57.1,75.4,56.3,75.4,55.9,75.9z M57.5,69.5c-0.6,0.6-0.5,1.6,0.1,2.1c0.6,0.6,1.6,0.5,2.1-0.1c0.6-0.6,0.5-1.6-0.1-2.1
				C59,68.9,58,68.9,57.5,69.5z M57,62.9c-0.7,0.8-0.7,2,0.1,2.7c0.8,0.7,2,0.7,2.7-0.1c0.7-0.8,0.7-2-0.1-2.7
				C58.9,62.1,57.7,62.1,57,62.9z M54.6,56.7c-0.8,0.9-0.8,2.2,0.1,3.1c0.9,0.8,2.2,0.8,3.1-0.1c0.8-0.9,0.8-2.2-0.1-3.1
				C56.8,55.8,55.5,55.8,54.6,56.7z M52.5,81.4c-0.3,0.4-0.3,0.9,0,1.3c0.4,0.3,0.9,0.3,1.3,0c0.3-0.4,0.3-0.9,0-1.3
				C53.4,81,52.9,81,52.5,81.4z M26.1,84.6c0.9-1,0.9-2.6-0.1-3.5c-1-0.9-2.6-0.9-3.5,0.1c-0.9,1-0.9,2.6,0.1,3.5
				C23.6,85.6,25.2,85.6,26.1,84.6z M20.8,60.1c0.5-0.5,0.4-1.3-0.1-1.7c-0.5-0.5-1.3-0.4-1.7,0c-0.5,0.5-0.4,1.3,0.1,1.7
				C19.5,60.6,20.3,60.6,20.8,60.1z M19.2,66.4c0.6-0.6,0.5-1.6-0.1-2.1c-0.6-0.6-1.6-0.5-2.1,0.1c-0.6,0.6-0.5,1.6,0.1,2.1
				C17.6,67.1,18.6,67,19.2,66.4z M19.7,73.1c0.7-0.8,0.7-2-0.1-2.7c-0.8-0.7-2-0.7-2.7,0.1c-0.7,0.8-0.7,2,0.1,2.7
				C17.7,73.9,18.9,73.9,19.7,73.1z M22,79.3c0.8-0.9,0.8-2.2-0.1-3.1c-0.9-0.8-2.2-0.8-3,0.1c-0.8,0.9-0.8,2.2,0.1,3.1
				C19.8,80.2,21.2,80.1,22,79.3z M47.3,86.8c0.5,0.5,1.3,0.4,1.7-0.1c0.5-0.5,0.4-1.3-0.1-1.7c-0.5-0.5-1.3-0.4-1.7,0
				C46.8,85.5,46.8,86.3,47.3,86.8z M41.1,89.1c0.6,0.6,1.6,0.5,2.1-0.1c0.6-0.6,0.5-1.6-0.1-2.1c-0.6-0.6-1.6-0.5-2.1,0.1
				C40.4,87.6,40.5,88.6,41.1,89.1z M34.4,89.6c0.8,0.7,2,0.7,2.7-0.1c0.7-0.8,0.7-2-0.1-2.7c-0.8-0.7-2-0.7-2.7,0.1
				C33.6,87.7,33.6,88.9,34.4,89.6z M28.1,88c0.9,0.8,2.2,0.8,3-0.1c0.8-0.9,0.8-2.2-0.1-3.1c-0.9-0.8-2.2-0.8-3.1,0.1
				C27.2,85.8,27.2,87.2,28.1,88z"/>
			
				<linearGradient id="SVGID_4_" gradientUnits="userSpaceOnUse" x1="-14.3422" y1="96.2148" x2="-42.4513" y2="47.5283" gradientTransform="matrix(0.9932 0.1161 -0.1161 0.9932 74.8592 -9.200697e-02)">
				<stop  offset="0" style="stop-color:#FFFFFF"/>
				<stop  offset="5.001655e-02" style="stop-color:#FFFFFF"/>
				<stop  offset="0.2503" style="stop-color:#FFFFFF"/>
				<stop  offset="0.5" style="stop-color:#FFFFFF"/>
				<stop  offset="0.7497" style="stop-color:#FFFFFF"/>
				<stop  offset="0.95" style="stop-color:#FFFFFF"/>
				<stop  offset="1" style="stop-color:#FFFFFF"/>
			</linearGradient>
			<path fill="url(#SVGID_4_)" d="M64.2,60.1c-1.5,0.7-3.3,0-4-1.6c-0.7-1.5,0-3.3,1.6-4c1.5-0.7,3.3,0,4,1.6
				C66.4,57.7,65.7,59.4,64.2,60.1z M43.1,40.9c-0.2-0.9-1.1-1.5-2-1.3c-0.9,0.2-1.5,1-1.3,2c0.2,0.9,1.1,1.5,2,1.3
				C42.7,42.7,43.2,41.8,43.1,40.9z M50.2,42.5c-0.3-1.1-1.4-1.7-2.4-1.5c-1.1,0.3-1.7,1.4-1.5,2.4c0.3,1.1,1.4,1.7,2.4,1.5
				C49.8,44.7,50.5,43.6,50.2,42.5z M56.8,45.7c-0.4-1.3-1.8-2.1-3.1-1.6c-1.3,0.4-2.1,1.8-1.6,3.1c0.4,1.3,1.8,2.1,3.1,1.6
				C56.4,48.4,57.2,47,56.8,45.7z M62,50.3c-0.5-1.4-2.1-2.2-3.6-1.6c-1.4,0.5-2.2,2.1-1.6,3.6c0.5,1.4,2.1,2.2,3.6,1.6
				C61.8,53.4,62.5,51.8,62,50.3z M28.8,42.8c-0.3-0.6-1-0.9-1.6-0.6c-0.6,0.3-0.9,1-0.6,1.6c0.3,0.6,1,0.9,1.6,0.6
				C28.8,44.1,29,43.4,28.8,42.8z M58.9,82.7c-0.8,0.5-0.9,1.6-0.4,2.3c0.5,0.8,1.6,0.9,2.3,0.4c0.7-0.5,0.9-1.6,0.4-2.3
				C60.7,82.4,59.7,82.2,58.9,82.7z M62.2,76.2c-0.9,0.6-1.2,1.8-0.6,2.8c0.6,0.9,1.8,1.2,2.8,0.6c0.9-0.6,1.2-1.8,0.6-2.8
				C64.4,75.9,63.2,75.6,62.2,76.2z M63.8,68.9c-1.2,0.7-1.6,2.2-1,3.4c0.7,1.2,2.2,1.6,3.4,1c1.2-0.7,1.6-2.2,1-3.4
				C66.5,68.7,65,68.2,63.8,68.9z M63.7,61.6c-1.4,0.7-1.9,2.3-1.2,3.7c0.7,1.4,2.3,1.9,3.7,1.3c1.4-0.7,1.9-2.3,1.2-3.7
				C66.7,61.5,65.1,60.9,63.7,61.6z M48.5,91.6c-0.6,0.3-0.9,1-0.6,1.6c0.3,0.6,1,0.9,1.6,0.6c0.6-0.3,0.9-1,0.6-1.6
				C49.8,91.6,49.1,91.3,48.5,91.6z M14.8,81.4c1.5-0.7,2.2-2.4,1.6-4c-0.7-1.5-2.4-2.2-4-1.6c-1.5,0.7-2.2,2.4-1.6,4
				C11.5,81.4,13.3,82.1,14.8,81.4z M17.7,53.3c0.7-0.5,0.9-1.6,0.4-2.3c-0.5-0.8-1.6-0.9-2.3-0.4c-0.8,0.5-0.9,1.6-0.4,2.3
				C15.9,53.6,16.9,53.8,17.7,53.3z M14.4,59.8c0.9-0.6,1.2-1.8,0.6-2.8c-0.6-0.9-1.8-1.2-2.8-0.6c-0.9,0.6-1.2,1.8-0.6,2.8
				C12.2,60.1,13.5,60.4,14.4,59.8z M12.8,67.1c1.2-0.7,1.6-2.2,1-3.4c-0.7-1.2-2.2-1.6-3.4-1c-1.2,0.7-1.6,2.2-1,3.4
				C10.1,67.3,11.6,67.7,12.8,67.1z M12.9,74.4c1.4-0.7,1.9-2.3,1.2-3.7c-0.7-1.4-2.3-1.9-3.7-1.2c-1.4,0.7-1.9,2.3-1.3,3.7
				C9.9,74.5,11.5,75,12.9,74.4z M33.6,95c0.2,0.9,1.1,1.5,2,1.3c0.9-0.2,1.5-1.1,1.3-2c-0.2-0.9-1.1-1.5-2-1.3
				C34,93.3,33.4,94.1,33.6,95z M26.4,93.5c0.3,1.1,1.4,1.7,2.4,1.5c1.1-0.3,1.7-1.4,1.5-2.4c-0.3-1.1-1.4-1.7-2.5-1.5
				C26.8,91.3,26.2,92.4,26.4,93.5z M19.9,90.3c0.4,1.3,1.8,2.1,3.1,1.6c1.3-0.4,2.1-1.8,1.7-3.1c-0.4-1.3-1.8-2.1-3.1-1.6
				C20.2,87.6,19.4,89,19.9,90.3z M14.6,85.6c0.5,1.4,2.1,2.2,3.6,1.6c1.4-0.5,2.2-2.1,1.6-3.6c-0.5-1.4-2.1-2.2-3.6-1.6
				C14.8,82.6,14.1,84.2,14.6,85.6z M54.2,88.1c-0.6,0.4-0.7,1.3-0.2,1.8c0.4,0.6,1.3,0.7,1.8,0.2c0.6-0.4,0.7-1.3,0.2-1.8
				C55.6,87.7,54.8,87.6,54.2,88.1z M42,93.3c-0.7,0.1-1.2,0.8-1.1,1.5c0.1,0.7,0.8,1.2,1.5,1.1c0.7-0.1,1.2-0.8,1.1-1.5
				C43.4,93.7,42.7,93.2,42,93.3z M35.7,41.2c-0.1-0.7-0.8-1.2-1.5-1.1c-0.7,0.1-1.2,0.8-1.1,1.5c0.1,0.7,0.8,1.2,1.5,1.1
				C35.3,42.6,35.8,41.9,35.7,41.2z M22.6,46.1c-0.4-0.6-1.3-0.7-1.8-0.2c-0.6,0.4-0.7,1.3-0.2,1.8c0.4,0.6,1.3,0.7,1.8,0.2
				C23,47.5,23.1,46.6,22.6,46.1z"/>
			<linearGradient id="SVGID_5_" gradientUnits="userSpaceOnUse" x1="38.31" y1="103.9922" x2="38.31" y2="31.9922">
				<stop  offset="0" style="stop-color:#FFFFFF"/>
				<stop  offset="5.001655e-02" style="stop-color:#FFFFFF"/>
				<stop  offset="0.2503" style="stop-color:#FFFFFF"/>
				<stop  offset="0.5" style="stop-color:#FFFFFF"/>
				<stop  offset="0.7497" style="stop-color:#FFFFFF"/>
				<stop  offset="0.95" style="stop-color:#FFFFFF"/>
				<stop  offset="1" style="stop-color:#FFFFFF"/>
			</linearGradient>
			<path fill="url(#SVGID_5_)" d="M72.8,71.8c-2.1,0-3.9-1.7-3.9-3.9c0-2.1,1.7-3.9,3.9-3.9c2.1,0,3.9,1.7,3.9,3.9
				C76.6,70.1,74.9,71.8,72.8,71.8z M57.6,38.6c0.2-1.2-0.5-2.3-1.6-2.5c-1.2-0.2-2.3,0.5-2.5,1.6c-0.2,1.2,0.5,2.3,1.6,2.5
				C56.2,40.5,57.4,39.7,57.6,38.6z M65.2,44c0.2-1.4-0.7-2.7-2.1-2.9c-1.4-0.2-2.7,0.7-3,2.1c-0.2,1.4,0.7,2.7,2.1,3
				C63.7,46.4,65,45.4,65.2,44z M71.3,51.1c0.2-1.8-1.1-3.3-2.9-3.5c-1.8-0.2-3.3,1.1-3.5,2.9c-0.2,1.8,1.1,3.3,2.9,3.5
				C69.6,54.1,71.2,52.9,71.3,51.1z M75.1,59.3c0.1-2-1.4-3.6-3.4-3.7c-2-0.1-3.6,1.4-3.7,3.4c-0.1,2,1.4,3.6,3.3,3.7
				C73.4,62.7,75,61.2,75.1,59.3z M39.9,33.5c0-0.9-0.7-1.5-1.6-1.5c-0.9,0-1.5,0.7-1.5,1.5c0,0.9,0.7,1.5,1.5,1.5
				C39.2,35.1,39.9,34.4,39.9,33.5z M55.1,95.8c-1.2,0.2-1.9,1.4-1.6,2.5c0.2,1.2,1.4,1.9,2.5,1.6c1.1-0.2,1.9-1.4,1.6-2.5
				C57.4,96.2,56.2,95.5,55.1,95.8z M62.3,89.8c-1.4,0.2-2.4,1.5-2.1,2.9c0.2,1.4,1.5,2.4,3,2.1c1.4-0.2,2.4-1.5,2.1-2.9
				C65,90.5,63.7,89.6,62.3,89.8z M67.8,82c-1.8,0.2-3,1.8-2.9,3.5c0.2,1.8,1.8,3,3.5,2.9c1.8-0.2,3-1.8,2.9-3.5
				C71.2,83.1,69.6,81.8,67.8,82z M71.4,73.4c-1.9,0.1-3.5,1.8-3.3,3.7c0.1,2,1.8,3.5,3.7,3.4c1.9-0.1,3.5-1.8,3.4-3.7
				C75,74.8,73.4,73.3,71.4,73.4z M38.3,100.9c-0.9,0-1.5,0.7-1.5,1.5s0.7,1.5,1.5,1.5c0.9,0,1.6-0.7,1.6-1.5
				C39.9,101.6,39.2,100.9,38.3,100.9z M3.9,71.8c2.1,0,3.8-1.7,3.8-3.9c0-2.1-1.7-3.9-3.8-3.9C1.7,64.1,0,65.8,0,68
				C0,70.1,1.7,71.8,3.9,71.8z M21.5,40.2c1.2-0.2,1.9-1.4,1.6-2.5c-0.2-1.2-1.4-1.9-2.5-1.6c-1.1,0.2-1.9,1.4-1.6,2.5
				C19.2,39.7,20.4,40.5,21.5,40.2z M14.4,46.2c1.4-0.2,2.4-1.5,2.1-3c-0.2-1.4-1.5-2.4-3-2.1c-1.4,0.2-2.4,1.5-2.1,2.9
				C11.6,45.4,12.9,46.4,14.4,46.2z M8.8,54c1.8-0.2,3-1.8,2.9-3.5c-0.2-1.8-1.8-3-3.5-2.9c-1.8,0.2-3,1.8-2.9,3.5
				C5.5,52.9,7,54.1,8.8,54z M5.2,62.6c2-0.1,3.5-1.8,3.4-3.7c-0.1-2-1.8-3.5-3.7-3.4c-1.9,0.1-3.5,1.8-3.4,3.7
				C1.6,61.2,3.3,62.7,5.2,62.6z M19,97.4c-0.2,1.2,0.5,2.3,1.6,2.5c1.2,0.2,2.3-0.5,2.5-1.6c0.2-1.1-0.5-2.3-1.6-2.5
				C20.4,95.5,19.2,96.2,19,97.4z M11.4,92c-0.2,1.4,0.7,2.7,2.1,2.9c1.4,0.2,2.7-0.7,3-2.1c0.2-1.4-0.7-2.7-2.1-2.9
				C12.9,89.6,11.6,90.5,11.4,92z M5.3,84.9c-0.2,1.8,1.1,3.3,2.9,3.5c1.8,0.2,3.3-1.1,3.5-2.9c0.2-1.8-1.1-3.3-2.9-3.5
				C7,81.8,5.5,83.1,5.3,84.9z M1.5,76.7c-0.1,2,1.4,3.6,3.4,3.7c2,0.1,3.6-1.4,3.7-3.4c0.1-2-1.4-3.6-3.4-3.7
				C3.3,73.3,1.6,74.8,1.5,76.7z M46.8,99.7c-0.9,0.2-1.4,1.1-1.2,2c0.2,0.9,1.2,1.4,2,1.2c0.9-0.2,1.4-1.1,1.2-2
				C48.6,100,47.7,99.4,46.8,99.7z M29.8,99.7c-0.9-0.2-1.8,0.3-2,1.2c-0.2,0.9,0.3,1.8,1.2,2c0.9,0.2,1.8-0.3,2-1.2
				C31.2,100.8,30.7,99.9,29.8,99.7z M48.8,35.1c0.2-0.9-0.3-1.8-1.2-2c-0.9-0.2-1.8,0.3-2,1.2c-0.2,0.9,0.3,1.8,1.2,2
				C47.7,36.6,48.6,36,48.8,35.1z M31,34.3c-0.2-0.9-1.2-1.4-2-1.2c-0.9,0.2-1.4,1.1-1.2,2c0.2,0.9,1.2,1.4,2,1.2
				C30.7,36.1,31.2,35.2,31,34.3z"/>
		</g>
	</g>
</g>
</svg>
